<svg width="25" height="24" viewBox="0 0 25 24" fill="none" xmlns="http://www.w3.org/2000/svg">
<g id="&#195;&#141;cone">
<path id="Icon" d="M12.6667 17C12.6667 19.7614 14.9053 22 17.6667 22C20.4281 22 22.6667 19.7614 22.6667 17C22.6667 14.2386 20.4281 12 17.6667 12C14.9053 12 12.6667 14.2386 12.6667 17ZM12.6667 17C12.6667 15.8742 13.0388 14.8353 13.6667 13.9995V5M12.6667 17C12.6667 17.8254 12.8667 18.604 13.2208 19.2901C12.3784 20.0018 10.4325 20.5 8.16669 20.5C5.12912 20.5 2.66669 19.6046 2.66669 18.5V5M13.6667 5C13.6667 6.10457 11.2043 7 8.16669 7C5.12912 7 2.66669 6.10457 2.66669 5M13.6667 5C13.6667 3.89543 11.2043 3 8.16669 3C5.12912 3 2.66669 3.89543 2.66669 5M2.66669 14C2.66669 15.1046 5.12912 16 8.16669 16C10.3557 16 12.246 15.535 13.1313 14.8618M13.6667 9.5C13.6667 10.6046 11.2043 11.5 8.16669 11.5C5.12912 11.5 2.66669 10.6046 2.66669 9.5" stroke="#FCC30B" stroke-width="2" stroke-linecap="round" stroke-linejoin="round"/>
</g>
</svg>
