<svg width="24" height="24" viewBox="0 0 24 24" fill="none" xmlns="http://www.w3.org/2000/svg">
<g id="Instagram">
<path id="Vector" d="M12.014 2.16338C15.2203 2.16338 15.6 2.17744 16.8609 2.23369C18.0328 2.28525 18.6656 2.48213 19.0875 2.64619C19.6453 2.86182 20.0484 3.12432 20.4656 3.5415C20.8875 3.96338 21.1453 4.36182 21.3609 4.91963C21.525 5.3415 21.7219 5.979 21.7734 7.14619C21.8297 8.41182 21.8437 8.7915 21.8437 11.9931C21.8437 15.1993 21.8297 15.579 21.7734 16.8399C21.7219 18.0118 21.525 18.6446 21.3609 19.0665C21.1453 19.6243 20.8828 20.0274 20.4656 20.4446C20.0437 20.8665 19.6453 21.1243 19.0875 21.3399C18.6656 21.504 18.0281 21.7009 16.8609 21.7524C15.5953 21.8087 15.2156 21.8228 12.014 21.8228C8.80779 21.8228 8.4281 21.8087 7.16716 21.7524C5.99529 21.7009 5.36248 21.504 4.9406 21.3399C4.38279 21.1243 3.97966 20.8618 3.56248 20.4446C3.1406 20.0228 2.88279 19.6243 2.66716 19.0665C2.5031 18.6446 2.30623 18.0071 2.25466 16.8399C2.19841 15.5743 2.18435 15.1946 2.18435 11.9931C2.18435 8.78682 2.19841 8.40713 2.25466 7.14619C2.30623 5.97432 2.5031 5.3415 2.66716 4.91963C2.88279 4.36182 3.14529 3.95869 3.56248 3.5415C3.98435 3.11963 4.38279 2.86182 4.9406 2.64619C5.36248 2.48213 5.99998 2.28525 7.16716 2.23369C8.4281 2.17744 8.80779 2.16338 12.014 2.16338ZM12.014 0.00244141C8.75623 0.00244141 8.34841 0.0165039 7.06873 0.0727539C5.79373 0.129004 4.91716 0.335254 4.15779 0.630566C3.3656 0.939941 2.69529 1.34775 2.02966 2.01807C1.35935 2.68369 0.951538 3.354 0.642163 4.1415C0.346851 4.90557 0.140601 5.77744 0.0843506 7.05244C0.0281006 8.33682 0.0140381 8.74463 0.0140381 12.0024C0.0140381 15.2603 0.0281006 15.6681 0.0843506 16.9478C0.140601 18.2228 0.346851 19.0993 0.642163 19.8587C0.951538 20.6509 1.35935 21.3212 2.02966 21.9868C2.69529 22.6524 3.3656 23.0649 4.1531 23.3696C4.91716 23.6649 5.78904 23.8712 7.06404 23.9274C8.34373 23.9837 8.75154 23.9978 12.0094 23.9978C15.2672 23.9978 15.675 23.9837 16.9547 23.9274C18.2297 23.8712 19.1062 23.6649 19.8656 23.3696C20.6531 23.0649 21.3234 22.6524 21.989 21.9868C22.6547 21.3212 23.0672 20.6509 23.3719 19.8634C23.6672 19.0993 23.8734 18.2274 23.9297 16.9524C23.9859 15.6728 24 15.2649 24 12.0071C24 8.74932 23.9859 8.3415 23.9297 7.06182C23.8734 5.78682 23.6672 4.91025 23.3719 4.15088C23.0765 3.354 22.6687 2.68369 21.9984 2.01807C21.3328 1.35244 20.6625 0.939941 19.875 0.635254C19.1109 0.339941 18.239 0.133691 16.964 0.0774414C15.6797 0.0165039 15.2719 0.00244141 12.014 0.00244141Z" fill="#A1A4B6"/>
<path id="Vector_2" d="M12.014 5.83838C8.61091 5.83838 5.84998 8.59932 5.84998 12.0024C5.84998 15.4056 8.61091 18.1665 12.014 18.1665C15.4172 18.1665 18.1781 15.4056 18.1781 12.0024C18.1781 8.59932 15.4172 5.83838 12.014 5.83838ZM12.014 16.0009C9.80623 16.0009 8.0156 14.2103 8.0156 12.0024C8.0156 9.79463 9.80623 8.004 12.014 8.004C14.2219 8.004 16.0125 9.79463 16.0125 12.0024C16.0125 14.2103 14.2219 16.0009 12.014 16.0009Z" fill="#A1A4B6"/>
<path id="Vector_3" d="M19.8609 5.59434C19.8609 6.39121 19.214 7.0334 18.4219 7.0334C17.625 7.0334 16.9828 6.38653 16.9828 5.59434C16.9828 4.79746 17.6297 4.15527 18.4219 4.15527C19.214 4.15527 19.8609 4.80215 19.8609 5.59434Z" fill="#A1A4B6"/>
</g>
</svg>
