<svg width="143" height="22" viewBox="0 0 143 22" fill="none" xmlns="http://www.w3.org/2000/svg">
<rect width="143" height="22" fill="#F4F5F7"/>
<g clip-path="url(#clip0_1622_261460)">
<rect width="1440" height="5242" transform="translate(-110 -29)" fill="white"/>
<g clip-path="url(#clip1_1622_261460)">
<rect width="1440" height="80" transform="translate(-110 -29)" fill="white"/>
<path d="M6.47127 13.2184C5.62449 12.9417 4.81111 12.6531 4.03351 12.3478C3.25591 12.0425 2.56656 11.6584 1.96547 11.1957C1.36438 10.7329 0.887324 10.1676 0.531918 9.49737C0.176511 8.82949 0 7.98033 0 6.95705C0 5.93376 0.186052 4.95818 0.560541 4.14957C0.93503 3.34335 1.44787 2.65877 2.09666 2.09585C2.74784 1.53531 3.50875 1.11073 4.38653 0.824492C5.26193 0.538258 6.20412 0.395142 7.20832 0.395142H14.3284V5.62368C14.0922 5.21102 13.7774 4.78167 13.3838 4.33801C12.9902 3.89435 12.537 3.48169 12.0242 3.09766C11.5114 2.71363 10.9461 2.39878 10.3259 2.15309C9.70571 1.90741 9.04975 1.78338 8.36041 1.78338H8.005C7.47308 1.78338 6.99603 1.89787 6.57145 2.12208C6.14687 2.34869 5.81293 2.64446 5.56725 3.00941C5.32156 3.37436 5.17367 3.78224 5.12358 4.23544C5.07349 4.68865 5.15221 5.12754 5.35973 5.54973C5.56725 5.97431 5.92027 6.36788 6.42356 6.73045C6.92686 7.0954 7.5995 7.37447 8.44628 7.57245C9.68662 7.84914 10.8936 8.2284 12.0647 8.71023C13.2359 9.19206 14.3236 9.88617 15.3302 10.7926C15.9408 11.365 16.3845 12.0282 16.6588 12.7867C16.9331 13.5452 17.0524 14.318 17.0142 15.1052C16.9737 15.8923 16.7781 16.6556 16.4227 17.395C16.0673 18.1345 15.5759 18.7785 14.9462 19.3295C13.5675 20.4911 11.7451 21.0731 9.48149 21.0731H0.474671V14.6925C0.710814 15.4009 1.03521 16.0569 1.45025 16.658C1.8629 17.2591 2.33758 17.7767 2.86711 18.2084C3.39903 18.6425 3.99057 18.9765 4.63937 19.2126C5.28817 19.4488 5.96797 19.568 6.67879 19.568H8.21491C9.02113 19.568 9.67708 19.3271 10.1804 18.8453C10.6837 18.3635 10.9675 17.7958 11.0367 17.147C11.1059 16.4958 10.9079 15.847 10.4451 15.1982C9.9824 14.547 9.19049 14.0556 8.06702 13.7217C7.73069 13.6239 7.43253 13.5357 7.16538 13.4569C6.90062 13.3782 6.66686 13.2995 6.47127 13.2208V13.2184Z" fill="#FCC30B"/>
<path d="M25.2887 8.72693C25.7419 8.05905 26.3335 7.52713 27.061 7.13117C27.7885 6.7376 28.5971 6.53962 29.4844 6.53962C30.1929 6.53962 30.8584 6.6732 31.4785 6.93797C32.0987 7.20273 32.6402 7.56768 33.1029 8.03042C33.5657 8.49317 33.9306 9.03463 34.1954 9.6548C34.4601 10.275 34.5937 10.9405 34.5937 11.6489V17.1446C34.5937 18.0319 34.7798 18.8286 35.1543 19.537C35.5287 20.2454 36.001 20.7583 36.5735 21.0731H27.8291C28.4206 20.7583 28.9024 20.2454 29.2769 19.537C29.6514 18.8286 29.8375 18.0295 29.8375 17.1446V10.5874C29.8375 10.213 29.7731 9.88379 29.6443 9.59755C29.5155 9.31132 29.3389 9.07518 29.1123 8.88913C28.8857 8.70307 28.6305 8.55996 28.3443 8.45978C28.0581 8.36198 27.767 8.31189 27.4737 8.31189C26.9012 8.31189 26.3955 8.49555 25.9518 8.85812C25.5082 9.22307 25.2864 9.77884 25.2864 10.5278C25.3054 11.6322 25.3102 12.7294 25.3007 13.8219C25.2911 14.9143 25.2864 16.0235 25.2864 17.1446C25.2864 18.0319 25.4724 18.8286 25.8469 19.537C26.2214 20.2454 26.7032 20.7583 27.2948 21.0731H18.5217C19.1132 20.7583 19.5951 20.2454 19.9696 19.537C20.3441 18.8286 20.5301 18.0295 20.5301 17.1446V4.32608C20.5301 3.41968 20.3417 2.61345 19.9696 1.90264C19.5951 1.19421 19.1132 0.690916 18.5217 0.395142H25.2864V8.72454L25.2887 8.72693Z" fill="#FCC30B"/>
<path d="M45.6734 6.51343C46.6966 6.51343 47.6317 6.66609 48.4808 6.97141C49.3276 7.27672 50.0503 7.68938 50.6514 8.21175C51.2525 8.73413 51.72 9.34476 52.054 10.0436C52.3879 10.7425 52.5573 11.4963 52.5573 12.3025C52.5573 13.1898 52.376 13.9412 52.011 14.5638C51.6461 15.1839 51.1643 15.6872 50.5632 16.0713C49.9621 16.4553 49.2823 16.732 48.5238 16.8989C47.7652 17.0659 46.9924 17.1303 46.2053 17.0922C45.3179 17.0325 44.5117 16.856 43.7818 16.5602C44.0967 17.4476 44.5594 18.1298 45.1701 18.614C45.7807 19.0982 46.4605 19.3367 47.2095 19.3367C47.7796 19.3367 48.352 19.1936 48.9221 18.9074C49.4922 18.6211 50.0336 18.1631 50.5465 17.5334L51.107 17.7982C50.5346 18.862 49.7736 19.7327 48.8171 20.4125C47.8607 21.0923 46.8135 21.4811 45.671 21.5789C44.0156 21.6981 42.644 21.4071 41.5492 20.7082C40.4567 20.0094 39.6338 19.1029 39.0828 17.989C38.5318 16.8775 38.2551 15.6514 38.2551 14.3109C38.2551 12.9704 38.5318 11.7253 39.0828 10.5732C39.6338 9.42109 40.4567 8.45744 41.5492 7.67745C42.6417 6.89985 44.0156 6.51105 45.671 6.51105L45.6734 6.51343ZM47.9489 9.31852C47.9489 8.76752 47.7223 8.34294 47.2691 8.04717C46.8159 7.75139 46.3126 7.60351 45.7616 7.60351C45.1701 7.60351 44.6286 7.78002 44.1372 8.13542C43.6435 8.49083 43.3978 9.06091 43.3978 9.84806V14.1893C43.3978 14.6425 43.4264 15.0671 43.486 15.4606C43.8987 15.5799 44.2923 15.6371 44.6668 15.6371C45.5923 15.6371 46.3699 15.3366 46.9996 14.7355C47.6293 14.1344 47.9441 13.3234 47.9441 12.2977V9.31375L47.9489 9.31852Z" fill="#FCC30B"/>
<path d="M52.4309 4.17831C52.0564 3.29099 51.534 2.51339 50.8661 1.84551C50.1959 1.17525 49.5161 0.693419 48.8267 0.397644H58.6636C58.2104 0.712501 57.9456 1.22534 57.8669 1.93376C57.7882 2.64219 57.9361 3.44126 58.3106 4.3262L63.4795 16.4387L66.1963 9.64299L63.8635 4.17831C63.489 3.29099 62.9667 2.51339 62.2988 1.84551C61.6285 1.17525 60.9487 0.693419 60.2594 0.397644H70.0676C69.6144 0.712501 69.3473 1.22534 69.271 1.93376C69.1922 2.64219 69.3497 3.44126 69.7432 4.3262L74.8835 16.4387L79.759 4.3262C80.1144 3.43888 80.2456 2.64219 80.1574 1.93376C80.0691 1.22534 79.7877 0.712501 79.3154 0.397644H85.2834C84.5749 0.712501 83.8904 1.22057 83.2296 1.91945C82.5689 2.61834 82.0632 3.41025 81.7078 4.29758L74.9718 21.0756H71.0432L67.2029 12.0068L63.5391 21.0756H59.6392L52.4309 4.17831Z" fill="#000C56"/>
<path d="M83.2129 14.0461C83.2129 12.8057 83.4252 11.7181 83.8474 10.7806C84.2696 9.84561 84.8325 9.068 85.5314 8.44783C86.2303 7.82766 87.027 7.36491 87.9239 7.0596C88.8207 6.75428 89.7295 6.60162 90.6574 6.60162C91.5853 6.60162 92.4893 6.75428 93.3742 7.0596C94.2615 7.36491 95.0535 7.82766 95.7523 8.44783C96.4512 9.068 97.0118 9.84561 97.4364 10.7806C97.8585 11.7157 98.0708 12.8034 98.0708 14.0461C98.0708 15.2888 97.8585 16.3693 97.4364 17.2948C97.0118 18.2203 96.4512 18.9932 95.7523 19.6133C95.0535 20.2335 94.2615 20.701 93.3742 21.0159C92.4869 21.3307 91.5829 21.4882 90.6574 21.4882C89.7319 21.4882 88.8207 21.3307 87.9239 21.0159C87.027 20.701 86.2303 20.2335 85.5314 19.6133C84.8325 18.9932 84.272 18.2203 83.8474 17.2948C83.4228 16.3693 83.2129 15.2864 83.2129 14.0461ZM92.9329 18.2418V9.85276C92.9329 9.10378 92.6968 8.54324 92.2245 8.16875C91.7522 7.79426 91.2298 7.60821 90.6598 7.60821C90.0897 7.60821 89.5673 7.79665 89.095 8.16875C88.6227 8.54324 88.3866 9.10378 88.3866 9.85276V18.2418C88.3866 18.9908 88.6227 19.5513 89.095 19.9258C89.5673 20.3003 90.0897 20.4863 90.6598 20.4863C91.2298 20.4863 91.7522 20.3003 92.2245 19.9258C92.6968 19.5513 92.9329 18.9908 92.9329 18.2418Z" fill="#000C56"/>
<path d="M99.5473 21.0755C100.139 20.7607 100.621 20.2478 100.995 19.5394C101.37 18.831 101.556 18.0319 101.556 17.147V10.9738C101.556 10.0674 101.367 9.26122 100.995 8.5504C100.621 7.84198 100.139 7.33868 99.5473 7.04291H106.312V8.72691C106.784 8.05904 107.381 7.52712 108.099 7.13116C108.817 6.7352 109.62 6.53961 110.508 6.53961C111.137 6.53961 111.707 6.63741 112.22 6.83539C112.731 7.03336 113.17 7.30767 113.535 7.66308C113.9 8.01849 114.179 8.42637 114.377 8.88911C114.572 9.35186 114.672 9.85038 114.672 10.3799C114.672 10.7544 114.603 11.1098 114.465 11.4437C114.327 11.7777 114.136 12.0687 113.888 12.3144C113.642 12.5601 113.351 12.7533 113.017 12.8916C112.683 13.03 112.328 13.0991 111.953 13.0991C111.579 13.0991 111.223 13.03 110.889 12.8916C110.553 12.7533 110.264 12.5624 110.019 12.3144C109.773 12.0687 109.575 11.7777 109.427 11.4437C109.279 11.1098 109.205 10.7544 109.205 10.3799C109.205 9.72873 109.413 9.14911 109.826 8.63627C109.451 8.40013 109.048 8.28087 108.614 8.28087C108.022 8.28087 107.49 8.48362 107.018 8.88673C106.546 9.28984 106.31 9.83846 106.31 10.5254C106.329 11.6489 106.333 12.7509 106.324 13.8338C106.314 14.9167 106.31 16.0211 106.31 17.1422C106.31 18.0295 106.503 18.8262 106.887 19.5346C107.271 20.2431 107.748 20.7559 108.32 21.0707H99.5473V21.0755Z" fill="#000C56"/>
<path d="M116.151 21.0755C116.743 20.7607 117.225 20.2478 117.599 19.5394C117.974 18.831 118.16 18.0319 118.16 17.147V4.32608C118.16 3.41968 117.971 2.61345 117.599 1.90264C117.227 1.19183 116.743 0.690916 116.151 0.395142H122.916V13.3639L127.672 7.04292H131.925C131.157 7.31961 130.344 7.78236 129.487 8.43115C128.631 9.08233 127.868 9.81939 127.197 10.6471L126.694 11.3555L130.534 17.3235C131.105 18.1893 131.794 18.9574 132.603 19.6277C133.411 20.2979 134.189 20.7798 134.938 21.0755H125.277C125.633 20.8012 125.797 20.3623 125.781 19.7612C125.762 19.1601 125.544 18.4756 125.129 17.7075L123.653 15.4033L122.914 16.3789V17.147C122.914 18.0343 123.102 18.831 123.474 19.5394C123.849 20.2478 124.33 20.7607 124.922 21.0755H116.149H116.151Z" fill="#000C56"/>
<path d="M139.308 21.0278C141.347 21.0278 143 19.3747 143 17.3354C143 15.2962 141.347 13.643 139.308 13.643C137.268 13.643 135.615 15.2962 135.615 17.3354C135.615 19.3747 137.268 21.0278 139.308 21.0278Z" fill="#FCC30B"/>
</g>
</g>
<defs>
<clipPath id="clip0_1622_261460">
<rect width="1440" height="5242" fill="white" transform="translate(-110 -29)"/>
</clipPath>
<clipPath id="clip1_1622_261460">
<rect width="1440" height="80" fill="white" transform="translate(-110 -29)"/>
</clipPath>
</defs>
</svg>
