<svg width="143" height="22" viewBox="0 0 143 22" fill="none" xmlns="http://www.w3.org/2000/svg">
<g id="Logo SheWork Horizontal">
<g id="Group">
<path id="Vector" d="M6.46921 12.8221C5.62242 12.5462 4.80929 12.2557 4.03204 11.9507C3.25367 11.6456 2.56503 11.262 1.96387 10.7988C1.36271 10.3367 0.884918 9.77033 0.531623 9.10075C0.177208 8.4323 0 7.58439 0 6.5604C0 5.53641 0.187302 4.56176 0.561906 3.75423C0.935388 2.94783 1.44794 2.26255 2.09845 1.70064C2.74896 1.13986 3.51163 0.715904 4.38758 0.429904C5.26352 0.145026 6.20452 0.00146484 7.20944 0.00146484H14.3292V5.23022C14.0925 4.81636 13.7773 4.38904 13.3837 3.9449C12.99 3.50188 12.5369 3.08802 12.0243 2.70445C11.5118 2.32087 10.9454 2.00571 10.3252 1.75896C9.70493 1.51334 9.04994 1.38997 8.36017 1.38997H8.00576C7.47413 1.38997 6.99635 1.50325 6.57351 1.7298C6.14956 1.95636 5.81533 2.25245 5.56859 2.61584C5.32184 2.98035 5.17492 3.3886 5.12557 3.84172C5.07622 4.29483 5.15473 4.73336 5.36222 5.15619C5.56859 5.58015 5.923 5.97382 6.42547 6.33721C6.92793 6.70172 7.60199 6.98211 8.44878 7.17838C9.68923 7.45429 10.896 7.83338 12.0681 8.31565C13.2401 8.79793 14.328 9.49218 15.333 10.3984C15.9431 10.9704 16.3861 11.6344 16.662 12.3926C16.9379 13.1507 17.0557 13.9246 17.0164 14.7108C16.9772 15.4993 16.7798 16.262 16.4254 17.0011C16.071 17.7391 15.5786 18.384 14.9483 18.9358C13.5699 20.0977 11.7473 20.6787 9.48286 20.6787H0.47218V14.2981C0.708831 15.0081 1.03409 15.6619 1.44682 16.2631C1.85956 16.8643 2.33286 17.3813 2.86449 17.8142C3.39611 18.2471 3.98718 18.5825 4.63769 18.818C5.28707 19.0547 5.96674 19.1724 6.67558 19.1724H8.21213C9.01966 19.1724 9.67465 18.9313 10.1771 18.449C10.6796 17.9668 10.9645 17.4004 11.034 16.751C11.1024 16.1005 10.905 15.4511 10.4429 14.8017C9.97972 14.1512 9.18789 13.6599 8.0652 13.3246C7.72985 13.2259 7.43039 13.1384 7.16458 13.0588C6.89877 12.9803 6.6666 12.9017 6.47033 12.8221H6.46921Z" fill="#FCC30B"/>
<path id="Vector_2" d="M25.288 8.33199C25.7411 7.66353 26.3322 7.13079 27.0612 6.73712C27.7891 6.34345 28.5978 6.14605 29.4838 6.14605C30.1926 6.14605 30.8577 6.27952 31.4779 6.54533C32.0982 6.81114 32.6399 7.17565 33.1031 7.63774C33.5652 8.10095 33.9308 8.64154 34.1955 9.26289C34.4613 9.88312 34.5948 10.5482 34.5948 11.257V16.7516C34.5948 17.6376 34.7821 18.4362 35.1556 19.1439C35.5291 19.8539 36.0024 20.3653 36.5732 20.6805H27.8284C28.4194 20.3653 28.9017 19.8539 29.2763 19.1439C29.6498 18.4351 29.8371 17.6376 29.8371 16.7516V10.1938C29.8371 9.82031 29.7732 9.49057 29.6453 9.20457C29.5174 8.91969 29.3402 8.68304 29.1137 8.49574C28.8871 8.30844 28.6314 8.166 28.3454 8.0673C28.0594 7.9686 27.7689 7.92037 27.4739 7.92037C26.9019 7.92037 26.395 8.10319 25.952 8.4677C25.509 8.83221 25.2869 9.38851 25.2869 10.1366C25.306 11.2402 25.3116 12.3371 25.3015 13.4306C25.2914 14.523 25.2869 15.6312 25.2869 16.7538C25.2869 17.6399 25.4742 18.4384 25.8488 19.1462C26.2223 19.8561 26.7057 20.3675 27.2967 20.6827H18.5227C19.1138 20.3675 19.596 19.8561 19.9707 19.1462C20.3441 18.4373 20.5326 17.6399 20.5326 16.7538V3.92983C20.5326 3.0236 20.3453 2.21607 19.9707 1.50724C19.596 0.798412 19.1138 0.295949 18.5227 0.000976562H25.288V8.33199Z" fill="#FCC30B"/>
<path id="Vector_3" d="M45.6714 6.11684C46.6954 6.11684 47.6308 6.26938 48.4775 6.57444C49.3243 6.87951 50.0477 7.29337 50.6489 7.8149C51.2489 8.33643 51.7166 8.94768 52.052 9.64642C52.3862 10.3452 52.5544 11.0989 52.5544 11.9064C52.5544 12.7924 52.3716 13.5461 52.0082 14.1663C51.6437 14.7866 51.1615 15.289 50.5603 15.6726C49.9591 16.0562 49.2795 16.3321 48.5224 16.5003C47.7642 16.6686 46.9915 16.7325 46.203 16.6921C45.317 16.6327 44.5094 16.4555 43.7804 16.1605C44.0956 17.0465 44.5577 17.7307 45.1689 18.213C45.7791 18.6964 46.4587 18.9364 47.2068 18.9364C47.7777 18.9364 48.3486 18.7939 48.9206 18.5079C49.4914 18.2231 50.0332 17.7643 50.5457 17.134L51.1076 17.3998C50.5356 18.4642 49.773 19.3345 48.8185 20.0142C47.8629 20.6939 46.8143 21.0831 45.6725 21.1806C44.0182 21.2995 42.6443 21.0079 41.5519 20.3103C40.4583 19.6116 39.6362 18.7053 39.0855 17.5916C38.5337 16.479 38.2578 15.2531 38.2578 13.914C38.2578 12.5748 38.5337 11.3288 39.0855 10.1769C39.6373 9.02507 40.4595 8.06052 41.5519 7.28215C42.6443 6.50379 44.0182 6.11572 45.6725 6.11572L45.6714 6.11684ZM47.9459 8.92301C47.9459 8.3712 47.7194 7.94837 47.2663 7.65227C46.8131 7.3573 46.3107 7.20925 45.76 7.20925C45.1689 7.20925 44.6272 7.38646 44.1348 7.74088C43.6425 8.09529 43.3957 8.66729 43.3957 9.45463V13.7973C43.3957 14.2505 43.4249 14.6744 43.4843 15.0681C43.8982 15.187 44.2919 15.2453 44.6665 15.2453C45.5918 15.2453 46.3701 14.9447 47.0004 14.3447C47.6308 13.7446 47.9459 12.9315 47.9459 11.9075V8.92413V8.92301Z" fill="#FCC30B"/>
</g>
<g id="Group_2">
<path id="Vector_4" d="M52.4288 3.78193C52.0542 2.89589 51.5327 2.11752 50.8631 1.44795C50.1935 0.778369 49.5139 0.296094 48.8252 0H58.6625C58.2094 0.315161 57.9436 0.827718 57.8651 1.53655C57.7866 2.24538 57.9335 3.04394 58.3081 3.92998L63.4785 16.0418L66.1961 9.24733L63.8621 3.78193C63.4875 2.89589 62.966 2.11752 62.2964 1.44795C61.6268 0.778369 60.9471 0.296094 60.2585 0H70.0666C69.6135 0.315161 69.3477 0.827718 69.2692 1.53655C69.1907 2.24538 69.3477 3.04394 69.7414 3.92998L74.8815 16.0418L79.7558 3.92998C80.1103 3.04394 80.2426 2.24538 80.154 1.53655C80.0654 0.827718 79.785 0.315161 79.3117 0H85.2796C84.5707 0.315161 83.8855 0.82211 83.226 1.52085C82.5654 2.22071 82.0584 3.01253 81.704 3.89857L74.969 20.6784H71.0401L67.1999 11.6094L63.5368 20.6784H59.6371L52.4288 3.78081V3.78193Z" fill="white"/>
<path id="Vector_5" d="M83.2114 13.6496C83.2114 12.4091 83.4222 11.3212 83.8462 10.3847C84.269 9.44929 84.8309 8.67092 85.5297 8.05069C86.2284 7.43046 87.0258 6.96838 87.9231 6.66219C88.8192 6.35712 89.7299 6.20459 90.6552 6.20459C91.5805 6.20459 92.4867 6.35712 93.3728 6.66219C94.2588 6.96726 95.0518 7.43046 95.7505 8.05069C96.4492 8.67092 97.0111 9.44929 97.434 10.3847C97.8568 11.3201 98.0688 12.408 98.0688 13.6496C98.0688 14.8911 97.8568 15.9735 97.434 16.8987C97.01 17.8252 96.4492 18.5968 95.7505 19.217C95.0506 19.8373 94.2588 20.3061 93.3728 20.6212C92.4867 20.9364 91.5805 21.0934 90.6552 21.0934C89.7299 21.0934 88.8181 20.9353 87.9231 20.6212C87.0269 20.3061 86.2295 19.8373 85.5297 19.217C84.8298 18.5968 84.269 17.824 83.8462 16.8987C83.4222 15.9735 83.2114 14.89 83.2114 13.6496ZM92.9309 17.8442V9.4549C92.9309 8.70681 92.6942 8.1449 92.2221 7.77142C91.7499 7.39682 91.2272 7.20951 90.6563 7.20951C90.0855 7.20951 89.5628 7.39682 89.0906 7.77142C88.6185 8.14602 88.3818 8.70681 88.3818 9.4549V17.8442C88.3818 18.5934 88.6185 19.1542 89.0906 19.5277C89.5628 19.9023 90.0855 20.0896 90.6563 20.0896C91.2272 20.0896 91.7499 19.9023 92.2221 19.5277C92.6942 19.1542 92.9309 18.5923 92.9309 17.8442Z" fill="white"/>
<path id="Vector_6" d="M99.547 20.6794C100.138 20.3643 100.62 19.8528 100.995 19.1429C101.368 18.434 101.556 17.6366 101.556 16.7506V10.5763C101.556 9.67123 101.368 8.86258 100.995 8.15375C100.62 7.44492 100.138 6.94245 99.547 6.64748H106.312V8.33096C106.785 7.6625 107.38 7.12976 108.099 6.73609C108.818 6.34242 109.621 6.14502 110.507 6.14502C111.137 6.14502 111.708 6.24372 112.221 6.43999C112.732 6.63739 113.171 6.91217 113.535 7.26771C113.9 7.62213 114.18 8.0315 114.378 8.49358C114.574 8.95679 114.672 9.45365 114.672 9.98527C114.672 10.3599 114.603 10.7143 114.466 11.0496C114.328 11.385 114.136 11.6755 113.89 11.9211C113.643 12.1678 113.352 12.3596 113.018 12.4976C112.683 12.6355 112.328 12.704 111.955 12.704C111.581 12.704 111.226 12.6355 110.892 12.4976C110.556 12.3596 110.266 12.1678 110.02 11.9211C109.775 11.6755 109.577 11.385 109.429 11.0496C109.281 10.7154 109.207 10.3599 109.207 9.98527C109.207 9.33476 109.413 8.75491 109.827 8.24235C109.453 8.0057 109.049 7.88794 108.616 7.88794C108.025 7.88794 107.493 8.08982 107.02 8.49358C106.548 8.89735 106.311 9.44467 106.311 10.1333C106.33 11.256 106.336 12.3596 106.326 13.4419C106.316 14.5254 106.311 15.6279 106.311 16.7506C106.311 17.6366 106.503 18.4352 106.888 19.1429C107.271 19.8528 107.749 20.3643 108.32 20.6794H99.5459H99.547Z" fill="white"/>
<path id="Vector_7" d="M116.15 20.6793C116.741 20.3642 117.223 19.8527 117.598 19.1428C117.972 18.434 118.159 17.6365 118.159 16.7505V3.92983C118.159 3.0236 117.972 2.21607 117.598 1.50724C117.223 0.798412 116.741 0.295949 116.15 0.000976562H122.914V12.9697L127.67 6.64739H131.924C131.156 6.9233 130.344 7.38651 129.487 8.0359C128.63 8.68641 127.868 9.4244 127.198 10.251L126.696 10.9598L130.536 16.9277C131.107 17.7935 131.795 18.5618 132.604 19.2314C133.412 19.901 134.19 20.3832 134.938 20.6793H125.278C125.632 20.4034 125.8 19.966 125.781 19.3649C125.76 18.7648 125.544 18.0807 125.13 17.3124L123.653 15.0076L122.914 15.9822V16.7505C122.914 17.6365 123.101 18.4351 123.476 19.1428C123.85 19.8527 124.333 20.3642 124.924 20.6793H116.15Z" fill="white"/>
</g>
<path id="Vector_8" d="M139.308 20.6315C141.347 20.6315 143 18.9784 143 16.9393C143 14.9001 141.347 13.2471 139.308 13.2471C137.269 13.2471 135.616 14.9001 135.616 16.9393C135.616 18.9784 137.269 20.6315 139.308 20.6315Z" fill="#FCC30B"/>
</g>
</svg>
