<svg width="24" height="24" viewBox="0 0 24 24" fill="none" xmlns="http://www.w3.org/2000/svg">
<g id="&#195;&#141;cone">
<path id="Icon" d="M6.00006 6L8.00006 4M8.00006 4L6.00006 2M8.00006 4H6.00006C3.79092 4 2.00006 5.79086 2.00006 8M18.0001 18L16.0001 20M16.0001 20L18.0001 22M16.0001 20H18.0001C20.2092 20 22.0001 18.2091 22.0001 16M13.4172 13.4172C14.1995 13.7908 15.0753 14 16.0001 14C19.3138 14 22.0001 11.3137 22.0001 8C22.0001 4.68629 19.3138 2 16.0001 2C12.6864 2 10.0001 4.68629 10.0001 8C10.0001 8.92472 10.2093 9.80057 10.5829 10.5828M14.0001 16C14.0001 19.3137 11.3138 22 8.00006 22C4.68635 22 2.00006 19.3137 2.00006 16C2.00006 12.6863 4.68635 10 8.00006 10C11.3138 10 14.0001 12.6863 14.0001 16Z" stroke="#FCC30B" stroke-width="2" stroke-linecap="round" stroke-linejoin="round"/>
</g>
</svg>
