<svg width="28" height="28" viewBox="0 0 28 28" fill="none" xmlns="http://www.w3.org/2000/svg">
<g id="Frame" clip-path="url(#clip0_6059_107345)">
<path id="Icon" d="M10.4 14L12.8 16.4L18.2 11M8.40052 4.18243C9.36512 4.10546 10.2809 3.72615 11.0174 3.0985C12.7361 1.63383 15.2639 1.63383 16.9826 3.0985C17.7191 3.72615 18.6349 4.10546 19.5995 4.18243C21.8505 4.36206 23.6379 6.14953 23.8176 8.40052C23.8945 9.36512 24.2739 10.2809 24.9015 11.0174C26.3662 12.7361 26.3662 15.2639 24.9015 16.9826C24.2739 17.7191 23.8945 18.6349 23.8176 19.5995C23.6379 21.8505 21.8505 23.6379 19.5995 23.8176C18.6349 23.8945 17.7191 24.2739 16.9826 24.9015C15.2639 26.3662 12.7361 26.3662 11.0174 24.9015C10.2809 24.2739 9.36512 23.8945 8.40052 23.8176C6.14953 23.6379 4.36206 21.8505 4.18243 19.5995C4.10546 18.6349 3.72615 17.7191 3.0985 16.9826C1.63383 15.2639 1.63383 12.7361 3.0985 11.0174C3.72615 10.2809 4.10546 9.36512 4.18243 8.40052C4.36206 6.14953 6.14953 4.36206 8.40052 4.18243Z" stroke="#FCC30B" stroke-width="2.4" stroke-linecap="round" stroke-linejoin="round"/>
</g>
<defs>
<clipPath id="clip0_6059_107345">
<rect width="28" height="28" fill="white"/>
</clipPath>
</defs>
</svg>
